<?xml version="1.0" encoding="utf-8"?>
<!-- Generator: Adobe Illustrator 25.0.0, SVG Export Plug-In . SVG Version: 6.00 Build 0)  -->
<svg version="1.1" id="Слой_1" xmlns="http://www.w3.org/2000/svg" xmlns:xlink="http://www.w3.org/1999/xlink" x="0px" y="0px"
	 viewBox="0 0 30 30" style="enable-background:new 0 0 30 30;" xml:space="preserve">
<style type="text/css">
	.st0{clip-path:url(#SVGID_2_);}
	.st1{fill:url(#SVGID_3_);}
	.st2{fill:#4DCB35;}
	.st3{fill:url(#SVGID_4_);}
	.st4{fill:none;stroke:#FFFFFF;stroke-opacity:0.5;}
	.st5{fill:#FFFFFF;}
</style>
<g>
	<g>
		<defs>
			<rect id="SVGID_1_" width="30" height="30"/>
		</defs>
		<clipPath id="SVGID_2_">
			<use xlink:href="#SVGID_1_"  style="overflow:visible;"/>
		</clipPath>
		<g class="st0">
			
				<linearGradient id="SVGID_3_" gradientUnits="userSpaceOnUse" x1="28.1173" y1="342.7909" x2="-1.0928" y2="343.2565" gradientTransform="matrix(1 0 0 1 0 -328)">
				<stop  offset="0" style="stop-color:#4DCB35"/>
				<stop  offset="1" style="stop-color:#4DCB35"/>
			</linearGradient>
			<path class="st1" d="M15,0L15,0c8.3,0,15,6.7,15,15v0c0,8.2-6.7,15-15,15h0C6.7,30,0,23.3,0,15v0C0,6.7,6.7,0,15,0z"/>
			<path class="st2" d="M15,29c7.7,0,14-6.3,14-14S22.7,1,15,1S1,7.3,1,15S7.3,29,15,29z"/>
			
				<linearGradient id="SVGID_4_" gradientUnits="userSpaceOnUse" x1="15" y1="329" x2="15" y2="357" gradientTransform="matrix(1 0 0 1 0 -328)">
				<stop  offset="0" style="stop-color:#FFFFFF;stop-opacity:0.5"/>
				<stop  offset="1" style="stop-color:#000000;stop-opacity:0.5"/>
			</linearGradient>
			<path class="st3" d="M15,29c7.7,0,14-6.3,14-14S22.7,1,15,1S1,7.3,1,15S7.3,29,15,29z"/>
			<path class="st4" d="M15,29c7.7,0,14-6.3,14-14S22.7,1,15,1S1,7.3,1,15S7.3,29,15,29z"/>
			<path class="st5" d="M19.8,9.9c0.5,1.3,0.2,2.3-0.6,3.1c1.6-0.1,2.8,0.6,3.2,2.6c0.5,2.6-1.2,3.8-3.8,4.7l0.8,2.6l-1.6,0.5
				L17,20.8c-0.4,0.1-0.8,0.2-1.3,0.4l0.7,2.6l-1.6,0.5L14,21.7c-0.4,0.1-0.8,0.2-1.1,0.3L11,22.5l-0.2-2l1.2-0.3
				c0.5-0.1,0.5-0.5,0.4-0.7l-1.2-4.2h0.2c-0.1,0-0.1,0-0.2,0l-0.9-3c-0.2-0.3-0.5-0.6-1.1-0.4L8,12.2l-0.5-1.7l2.2-0.6l0,0
				c0.3-0.1,0.7-0.2,1-0.3L10,7l1.6-0.5l0.7,2.6c0.4-0.1,0.8-0.3,1.3-0.4l-0.7-2.5l1.6-0.5l0.7,2.6C17.3,7.9,19.1,8.1,19.8,9.9z
				 M19.2,16.2c-0.6-2.1-3.9-0.8-5-0.5l1,3.5C16.3,18.9,19.8,18.2,19.2,16.2L19.2,16.2z M17.1,11.5c-0.5-1.9-3.3-0.8-4.2-0.5
				l0.9,3.2C14.7,13.9,17.6,13.3,17.1,11.5z"/>
		</g>
	</g>
</g>
</svg>
