<svg width="30" height="30" viewBox="0 0 30 30" fill="none" xmlns="http://www.w3.org/2000/svg">
<g clip-path="url(#clip0_2246_28186)">
<rect width="30" height="29.7458" rx="14.8729" fill="url(#paint0_linear_2246_28186)"/>
<path d="M15.0066 29.0132C22.7423 29.0132 29.0132 22.7423 29.0132 15.0066C29.0132 7.27098 22.7423 1 15.0066 1C7.27098 1 1 7.27098 1 15.0066C1 22.7423 7.27098 29.0132 15.0066 29.0132Z" fill="url(#paint1_linear_2246_28186)"/>
<path d="M28.5132 15.0066C28.5132 22.4661 22.4661 28.5132 15.0066 28.5132C7.54712 28.5132 1.5 22.4661 1.5 15.0066C1.5 7.54712 7.54712 1.5 15.0066 1.5C22.4661 1.5 28.5132 7.54712 28.5132 15.0066Z" stroke="white" stroke-opacity="0.57"/>
<path d="M17.9979 7.15625H10.9681L10.3856 10.413L16.7402 10.4262C19.8645 10.4262 20.7912 11.5648 20.7648 13.4447C20.7515 14.4111 20.3279 16.0395 20.1558 16.569C19.6792 17.9723 18.6863 19.5875 14.9794 19.5875H8.81016L8.20117 22.8442H15.2177C17.6934 22.8442 18.7525 22.5529 19.8645 22.0366C22.3402 20.8981 23.8097 18.4489 24.3922 15.2716C25.2792 10.5321 24.1804 7.15625 17.9979 7.15625Z" fill="white"/>
<path d="M7.92336 13.3652C6.08317 13.3652 5.81839 14.57 5.64629 15.2981C5.42123 16.2513 5.3418 16.6352 5.3418 16.6352H12.5437C14.3839 16.6352 14.6487 15.4305 14.8208 14.7024C15.0458 13.7492 15.1252 13.3652 15.1252 13.3652H7.92336Z" fill="white"/>
</g>
<defs>
<linearGradient id="paint0_linear_2246_28186" x1="15" y1="0" x2="15" y2="29.7458" gradientUnits="userSpaceOnUse">
<stop stop-color="#008DE4"/>
<stop offset="1" stop-color="#0071B5"/>
</linearGradient>
<linearGradient id="paint1_linear_2246_28186" x1="15.0066" y1="1" x2="15.0066" y2="29.0132" gradientUnits="userSpaceOnUse">
<stop stop-color="#6CC3F9"/>
<stop offset="1" stop-color="#0071B5"/>
</linearGradient>
<clipPath id="clip0_2246_28186">
<rect width="30" height="29.7458" fill="white"/>
</clipPath>
</defs>
</svg>
