<svg width="18" height="18" viewBox="0 0 18 18" fill="none" xmlns="http://www.w3.org/2000/svg">
<path opacity="0.2" d="M9 18C13.9706 18 18 13.9706 18 9C18 4.02944 13.9706 0 9 0C4.02944 0 0 4.02944 0 9C0 13.9706 4.02944 18 9 18Z" fill="white"/>
<path d="M9 18C13.9706 18 18 13.9706 18 9C18 4.02944 13.9706 0 9 0C4.02944 0 0 4.02944 0 9C0 13.9706 4.02944 18 9 18Z" fill="#C2A633"/>
<mask id="mask0" mask-type="alpha" maskUnits="userSpaceOnUse" x="0" y="0" width="18" height="18">
<path d="M9 18C13.9706 18 18 13.9706 18 9C18 4.02944 13.9706 0 9 0C4.02944 0 0 4.02944 0 9C0 13.9706 4.02944 18 9 18Z" fill="white"/>
</mask>
<g mask="url(#mask0)">
<path fill-rule="evenodd" clip-rule="evenodd" d="M9.14783 5.39014H6.69046V8.65385H5.19141V9.74177H6.69046V13.0055H9.14783C10.4449 13.0055 10.7244 12.8697 11.2834 12.598C11.3267 12.5769 11.3718 12.555 11.4192 12.5323C12.0767 12.2168 12.5878 11.7726 12.9522 11.1996C13.3167 10.6266 13.4989 9.95937 13.4989 9.19783C13.4989 8.43629 13.3167 7.76904 12.9522 7.19607C12.5878 6.6231 12.0767 6.17887 11.4192 5.86338C10.7616 5.54788 10.0045 5.39014 9.14783 5.39014ZM8.51624 9.74177V11.5587H9.05731C9.84638 11.5587 10.4757 11.3465 10.9454 10.9222C11.4151 10.4979 11.6499 9.92317 11.6499 9.19789C11.6499 8.47262 11.4151 7.89784 10.9454 7.47355C10.4757 7.04926 9.84638 6.83712 9.05731 6.83712H8.51624V8.65385H10.2639V9.74177H8.51624Z" fill="white"/>
</g>
</svg>
