<svg width="28" height="28" viewBox="0 0 28 28" fill="none" xmlns="http://www.w3.org/2000/svg">
<path d="M14 0C21.728 0 28 6.272 28 14C28 21.728 21.728 28 14 28C6.272 28 0 21.728 0 14C0 6.272 6.272 0 14 0Z" fill="url(#paint0_linear_1944_24169)"/>
<path d="M15.7363 12.1517V10.0797H20.4963V6.8877H7.50428V10.0797H12.2643V12.1517C8.40028 12.3197 5.48828 13.1037 5.48828 13.9997C5.48828 14.8957 8.40028 15.6797 12.2643 15.8477V22.5117H15.6803V15.8477C19.6003 15.6797 22.5123 14.8957 22.5123 13.9997C22.5123 13.1037 19.6003 12.3197 15.7363 12.1517ZM15.7363 15.2877C15.6243 15.2877 15.1203 15.3437 14.0563 15.3437C13.1603 15.3437 12.5443 15.3437 12.3203 15.2877C8.84828 15.1197 6.32828 14.5597 6.32828 13.8317C6.32828 13.1037 8.90428 12.5437 12.3203 12.3757V14.7277C12.5443 14.7277 13.1603 14.7837 14.0563 14.7837C15.1203 14.7837 15.6803 14.7277 15.7363 14.7277V12.3757C19.1523 12.5437 21.6723 13.1037 21.6723 13.8317C21.6723 14.5597 19.1523 15.1197 15.7363 15.2877Z" fill="white"/>
<defs>
<linearGradient id="paint0_linear_1944_24169" x1="14" y1="0" x2="14" y2="28" gradientUnits="userSpaceOnUse">
<stop stop-color="#53AE94" stop-opacity="0.6"/>
<stop offset="1" stop-color="#2B886D"/>
</linearGradient>
</defs>
</svg>
