<svg width="28" height="28" viewBox="0 0 28 28" fill="none" xmlns="http://www.w3.org/2000/svg">
<path d="M14 0C21.728 0 28 6.272 28 14C28 21.728 21.728 28 14 28C6.272 28 0 21.728 0 14C0 6.272 6.272 0 14 0Z" fill="url(#paint0_linear_2271_28613)"/>
<path d="M20.5215 8.83556L18.4879 9.84667L8.65327 14.7467C8.6215 14.4978 8.60561 14.2489 8.60561 14C8.60561 10.8578 11.243 8.27556 14.4523 8.27556C15.4533 8.27556 16.4383 8.52444 17.3121 9.00667L18.472 8.43111L18.6467 8.33778C17.4234 7.46667 15.9617 7 14.4523 7C10.528 7 7.3028 10.1578 7.3028 14C7.3028 14.1711 7.3028 14.3578 7.31869 14.5289C7.35047 15.0422 7.08037 15.5244 6.61963 15.7578L6 16.0689V17.5L7.81121 16.5978L8.39907 16.3022L8.97103 16.0067L19.3299 10.8422L20.4897 10.2667L22.8888 9.06889V7.63778L20.5215 8.83556ZM22.9047 10.5L9.55888 17.1578L8.39907 17.7333L6 18.9311V20.3622L8.38318 19.18L10.4168 18.1689L20.2514 13.2689C20.2832 13.5178 20.2991 13.7667 20.2991 14.0156C20.2991 17.1578 17.6617 19.74 14.4523 19.74C13.4514 19.74 12.4664 19.4911 11.5925 19.0089L11.529 19.04L10.2738 19.6778C11.4654 20.5333 12.943 21 14.4523 21C18.3766 21 21.6019 17.8422 21.6019 14C21.6019 13.8133 21.6019 13.6422 21.586 13.4556C21.5542 12.9422 21.8243 12.46 22.285 12.2267L22.9047 11.9156V10.5Z" fill="white"/>
<defs>
<linearGradient id="paint0_linear_2271_28613" x1="14" y1="0" x2="14" y2="28" gradientUnits="userSpaceOnUse">
<stop stop-color="#272727"/>
<stop offset="1" stop-color="#18191D"/>
</linearGradient>
</defs>
</svg>
