<svg width="30" height="30" viewBox="0 0 30 30" fill="none" xmlns="http://www.w3.org/2000/svg">
<g clip-path="url(#clip0_2246_28193)">
<rect width="30" height="29.7458" rx="14.8729" fill="url(#paint0_linear_2246_28193)"/>
<path d="M5.45903 24.541L5.46015 24.5421C6.69605 25.7858 8.13449 26.7552 9.74625 27.4359L9.74711 27.4363C11.405 28.1401 13.1722 28.5 14.9959 28.5C16.819 28.5 18.5773 28.1404 20.2508 27.421L20.2529 27.4201C21.8568 26.7394 23.3041 25.7616 24.541 24.5247L24.5421 24.5236C25.7858 23.2877 26.7552 21.8493 27.4359 20.2375L27.4363 20.2367C28.1401 18.5787 28.5 16.8115 28.5 14.9878C28.5 13.1728 28.1404 11.4055 27.4363 9.73895L5.45903 24.541ZM5.45903 24.541C4.22227 23.3042 3.24447 21.8569 2.56383 20.2532C1.85973 18.5867 1.5 16.8193 1.5 14.9959C1.5 13.1722 1.85985 11.405 2.5637 9.74711L2.56406 9.74625M5.45903 24.541L2.56406 9.74625M2.56406 9.74625C3.24475 8.13449 4.21419 6.69605 5.45792 5.46015L5.45903 5.45903M2.56406 9.74625L5.45903 5.45903M5.45903 5.45903C6.69579 4.22227 8.14308 3.24447 9.7468 2.56383C11.4135 1.85968 13.1808 1.5 14.9959 1.5C16.813 1.5 18.5885 1.85231 20.2537 2.55591L20.2537 2.55594M5.45903 5.45903L20.2537 2.55594M20.2537 2.55594C21.8655 3.23664 23.3039 4.20607 24.5399 5.4498L24.541 5.45092M20.2537 2.55594L24.541 5.45092M24.541 5.45092C25.7776 6.68756 26.7553 8.13469 27.436 9.73822L24.541 5.45092ZM20.4483 27.8803C22.1116 27.1744 23.6126 26.1602 24.8945 24.8783L20.4483 27.8803ZM20.4483 27.8803C18.712 28.6268 16.8864 29 14.9959 29C13.1055 29 11.2718 28.6268 9.55173 27.8965L20.4483 27.8803ZM6.94329 6.95001L6.94259 6.95071C4.78774 9.10556 3.60751 11.9671 3.60751 15.0041C3.60751 18.0419 4.79643 20.9028 6.9419 23.0567L6.94329 23.0581C9.09724 25.2036 11.9581 26.3925 14.9959 26.3925C18.0337 26.3925 20.8946 25.2036 23.0486 23.0581L23.05 23.0567C25.1955 20.9028 26.3844 18.0419 26.3844 15.0041C26.3844 11.9663 25.1955 9.10535 23.05 6.9514L23.0493 6.95071C20.8944 4.79586 18.0329 3.61562 14.9959 3.61562C11.9581 3.61562 9.09724 4.80454 6.94329 6.95001Z" stroke="white" stroke-opacity="0.57"/>
<circle cx="15" cy="15" r="12" fill="url(#paint1_linear_2246_28193)" stroke="#18191D" stroke-width="2"/>
<path d="M14.1839 18.4603H19.9081V21.479H16.3832C16.4368 22.3381 16.4751 23.1409 16.5288 24H13.5632V21.5111H10.0383C10.0383 20.5236 9.92331 19.5442 10.0919 18.6209C10.1839 18.1311 10.7126 17.6976 11.0344 17.2641C12.1532 15.8751 13.2644 14.5263 14.4138 13.1374C14.8582 12.6155 15.295 12.1178 15.7931 11.5397H10.2988V8.52096H13.5555V6H16.4061V8.46476H19.9617C19.9617 9.48439 20.0767 10.4639 19.9081 11.3872C19.8161 11.8769 19.2874 12.3104 18.9349 12.744C17.8161 14.1329 16.705 15.4817 15.5556 16.8707C15.1264 17.4166 14.6897 17.9063 14.1839 18.4603Z" fill="black"/>
</g>
<defs>
<linearGradient id="paint0_linear_2246_28193" x1="15" y1="0" x2="15" y2="29.7458" gradientUnits="userSpaceOnUse">
<stop stop-color="#FCCD58"/>
<stop offset="1" stop-color="#D48F2F"/>
</linearGradient>
<linearGradient id="paint1_linear_2246_28193" x1="15" y1="2" x2="15" y2="28" gradientUnits="userSpaceOnUse">
<stop stop-color="#FCCD58"/>
<stop offset="1" stop-color="#D48F2F"/>
</linearGradient>
<clipPath id="clip0_2246_28193">
<rect width="30" height="29.7458" fill="white"/>
</clipPath>
</defs>
</svg>
