<svg width="18" height="18" viewBox="0 0 18 18" fill="none" xmlns="http://www.w3.org/2000/svg">
<path fill-rule="evenodd" clip-rule="evenodd" d="M8.98663 0L3.46528 5.51282L5.49625 7.54059L8.98663 4.05581L12.4791 7.54245L14.5099 5.5148L8.98663 0ZM0 8.97223L2.03096 11L4.06193 8.97191L2.03096 6.94446L0 8.97223ZM13.9116 8.97319L15.9427 11.0008L17.9734 8.97306L15.9425 6.9453L13.9116 8.97319ZM8.98663 13.8892L5.49625 10.4043L3.4623 12.4294L3.46514 12.4322L8.98663 17.9448L14.5099 12.4303L14.5109 12.4292L12.4788 10.4027L8.98663 13.8892Z" fill="#FFBA00"/>
<path fill-rule="evenodd" clip-rule="evenodd" d="M11.0478 8.9711H11.0486L8.98768 6.91357L7.46469 8.43406L7.28964 8.60885L6.92861 8.96924L6.92578 8.97207L6.92861 8.97509L8.98768 11.0309L11.0486 8.97335L11.0496 8.97207L11.0478 8.9711Z" fill="#FFBA00"/>
</svg>
