<svg width="12" height="16" viewBox="0 0 12 16" fill="none" xmlns="http://www.w3.org/2000/svg">
<g clip-path="url(#clip0)">
<path d="M0.752855 3.81064H2.99554L1.25178 8.14204C1.25178 8.14204 0.340225 8.12693 0.0615014 7.31807C-0.0165728 7.07788 -0.0231285 6.81964 0.0426553 6.57568L0.752855 3.81064Z" fill="#D53127"/>
<path d="M9.45081 3.9033L6.5991 3.85293L7.24086 1.70335C7.29998 1.50657 7.31294 1.29848 7.2787 1.0957C7.24446 0.892929 7.16398 0.701105 7.04368 0.535572C6.92338 0.370039 6.7666 0.23539 6.5859 0.142393C6.40519 0.049396 6.20556 0.000631703 6.00297 0L3.40023 0L0.424529 10.8537C0.424529 10.8537 -0.641763 15.4953 3.40023 15.9154C3.40023 15.9154 9.79004 17.242 11.8403 9.40116C11.8403 9.40116 12.9225 4.65878 9.45081 3.9033ZM7.50173 9.28633C7.50173 9.28633 7.38766 11.2888 5.89981 11.6404C5.68013 11.6965 5.44801 11.6722 5.24417 11.5719C5.01107 11.451 4.77004 11.2002 4.77599 10.6744C4.77988 10.5224 4.80391 10.3716 4.84741 10.2261L5.39692 8.14203H6.89667C6.89667 8.14203 7.57612 8.36666 7.50173 9.28633Z" fill="#F47320"/>
<path d="M11.9772 7.21531C11.7044 4.02921 9.45082 3.9033 9.45082 3.9033L6.59911 3.85294L5.37411 8.16721H6.8699C7.14466 8.18232 7.64557 8.64266 7.48289 9.45757" fill="url(#paint0_linear)"/>
</g>
<defs>
<linearGradient id="paint0_linear" x1="11.4535" y1="11.4772" x2="6.86135" y2="4.53817" gradientUnits="userSpaceOnUse">
<stop offset="0.41" stop-color="#F47320"/>
<stop offset="0.5" stop-color="#F16D21"/>
<stop offset="0.62" stop-color="#E95C22"/>
<stop offset="0.75" stop-color="#DC4125"/>
<stop offset="0.81" stop-color="#D53127"/>
</linearGradient>
<clipPath id="clip0">
<rect width="12" height="16" fill="white"/>
</clipPath>
</defs>
</svg>
