<svg width="18" height="18" viewBox="0 0 18 18" fill="none" xmlns="http://www.w3.org/2000/svg">
<circle cx="9" cy="9" r="9" fill="#2457E6"/>
<path fill-rule="evenodd" clip-rule="evenodd" d="M10.2403 11.8092C10.6999 11.8092 11.1298 11.7221 11.535 11.5531C11.535 11.5684 12.3602 12.8951 12.375 12.9002C11.6446 13.3058 10.8267 13.512 9.99817 13.4995C7.46321 13.5046 5.625 11.7682 5.625 9.00741C5.625 6.22613 7.55216 4.5 9.99817 4.5C10.8629 4.5 11.5498 4.69464 12.2366 5.07367L11.446 6.45663C11.0309 6.2876 10.606 6.21077 10.1612 6.21077C8.66398 6.21077 7.50275 7.19933 7.50275 9.00741C7.50275 10.7182 8.62445 11.8092 10.2403 11.8092Z" fill="white"/>
</svg>
