<svg width="21" height="16" viewBox="0 0 21 16" fill="none" xmlns="http://www.w3.org/2000/svg">
<path fill-rule="evenodd" clip-rule="evenodd" d="M10.2586 0.19165C4.65508 0.19165 0.115234 4.60949 0.115234 10.0583V14.2858C0.115234 15.0642 0.76423 15.6942 1.56252 15.6942C2.36193 15.6942 3.01432 15.0642 3.01432 14.2858V10.0583C3.01432 9.27884 3.65999 8.64769 4.46272 8.64769C5.26213 8.64769 5.91119 9.27884 5.91119 10.0583V14.2858C5.91119 15.0642 6.56019 15.6942 7.35959 15.6942C8.16122 15.6942 8.81021 15.0642 8.81021 14.2858V10.0583C8.81021 9.27884 9.45928 8.64769 10.2586 8.64769C11.0613 8.64769 11.7104 9.27884 11.7104 10.0583V14.2858C11.7104 15.0642 12.3594 15.6942 13.1577 15.6942C13.9571 15.6942 14.6061 15.0642 14.6061 14.2858V10.0583C14.6061 9.27884 15.2552 8.64769 16.0579 8.64769C16.8573 8.64769 17.5064 9.27884 17.5064 10.0583V14.2858C17.5064 15.0642 18.1554 15.6942 18.957 15.6942C19.7564 15.6942 20.4054 15.0642 20.4054 14.2858V10.0583C20.4054 4.60949 15.8622 0.19165 10.2586 0.19165Z" fill="#22AEEA"/>
</svg>
