<svg width="17" height="18" viewBox="0 0 17 18" fill="none" xmlns="http://www.w3.org/2000/svg">
<g clip-path="url(#clip0)">
<path fill-rule="evenodd" clip-rule="evenodd" d="M10.6819 7.32624C11.5357 7.32624 12.2276 7.99482 12.2276 8.81874C12.2276 9.64314 11.5357 10.3117 10.6819 10.3117C9.82811 10.3117 9.13624 9.64314 9.13624 8.81874C9.13624 7.99482 9.82811 7.32624 10.6819 7.32624ZM5.27039 8.81874L10.6798 14.0423L14.0934 10.7458C14.6964 10.1641 15.6742 10.1641 16.2772 10.7458C16.8801 11.3284 16.8801 12.2722 16.2772 12.8548L11.7717 17.2052C11.1714 17.7848 10.1829 17.7791 9.58786 17.2052L3.08819 10.9288V14.66C3.08819 15.4792 2.39258 16.1509 1.5441 16.1509C0.691355 16.1509 0 15.4834 0 14.6605V2.97746C0 2.1546 0.691355 1.48706 1.5441 1.48706C2.39684 1.48706 3.08819 2.1546 3.08819 2.97746V6.70914L9.58786 0.432773C10.1829 -0.141683 11.1714 -0.146827 11.7717 0.432773L16.2772 4.78312C16.8801 5.36529 16.8801 6.30954 16.2772 6.89166C15.6742 7.47384 14.6964 7.47384 14.0934 6.89166L10.6798 3.59563L5.27039 8.81874Z" fill="#0DAA91"/>
</g>
<defs>
<clipPath id="clip0">
<rect width="16.875" height="18" fill="white"/>
</clipPath>
</defs>
</svg>
