<svg width="18" height="18" viewBox="0 0 18 18" fill="none" xmlns="http://www.w3.org/2000/svg">
<g clip-path="url(#clip0)">
<path d="M0 1.23805V16.7619C0 17.4457 0.554295 18 1.23805 18H16.7619C17.4457 18 18 17.4457 18 16.7619V1.23805C18 0.554295 17.4457 0 16.7619 0H1.23805C0.554295 0 0 0.554295 0 1.23805Z" fill="url(#paint0_linear)"/>
<path d="M2.25 4.48291H5.07826L8.36479 9.30065L6.78099 9.65281L5.46381 9.30065L2.25 4.48291Z" fill="url(#paint1_linear)"/>
<path d="M2.10156 14.1181H4.92983L8.36454 9.30078H5.46356L2.10156 14.1181Z" fill="url(#paint2_linear)"/>
<path d="M6.40039 4.48291H9.2291L12.5152 9.30066L10.9611 9.67249L9.61099 9.30066L6.40039 4.48291Z" fill="url(#paint3_linear)"/>
<path d="M12.9058 4.48291H15.7345L13.1591 8.36858L11.707 6.24143L12.9058 4.48291Z" fill="url(#paint4_linear)"/>
<path d="M10.5078 4.48291H11.5977L11.0612 5.29288L10.5078 4.48291Z" fill="url(#paint5_linear)"/>
<path d="M13.0704 14.1179H15.8991L13.1692 10.1865L11.707 12.2181L13.0704 14.1179Z" fill="url(#paint6_linear)"/>
<path d="M10.3398 14.1181H11.759L11.0579 13.1206L10.3398 14.1181Z" fill="url(#paint7_linear)"/>
<path d="M6.25391 14.1181H9.05289L12.5169 9.30078H9.61269L6.25391 14.1181Z" fill="url(#paint8_linear)"/>
</g>
<defs>
<linearGradient id="paint0_linear" x1="8.99977" y1="18" x2="8.99977" y2="0" gradientUnits="userSpaceOnUse">
<stop stop-color="#D1D5D8"/>
<stop offset="1" stop-color="#FDFCFD"/>
</linearGradient>
<linearGradient id="paint1_linear" x1="3.13045" y1="3.82739" x2="5.91159" y2="9.06185" gradientUnits="userSpaceOnUse">
<stop stop-color="#73A2A8"/>
<stop offset="1" stop-color="#71B5BF"/>
</linearGradient>
<linearGradient id="paint2_linear" x1="3.0053" y1="13.5255" x2="5.75025" y2="8.46477" gradientUnits="userSpaceOnUse">
<stop stop-color="#699699"/>
<stop offset="1" stop-color="#73A4A6"/>
</linearGradient>
<linearGradient id="paint3_linear" x1="7.26345" y1="4.02031" x2="9.85604" y2="8.88138" gradientUnits="userSpaceOnUse">
<stop stop-color="#005661"/>
<stop offset="1" stop-color="#048293"/>
</linearGradient>
<linearGradient id="paint4_linear" x1="12.6298" y1="7.74705" x2="12.6298" y2="3.96931" gradientUnits="userSpaceOnUse">
<stop stop-color="#676F74"/>
<stop offset="1" stop-color="#3B444A"/>
</linearGradient>
<linearGradient id="paint5_linear" x1="10.0361" y1="3.96931" x2="10.0361" y2="4.75687" gradientUnits="userSpaceOnUse">
<stop stop-color="#93989C"/>
<stop offset="1" stop-color="#AAAFB2"/>
</linearGradient>
<linearGradient id="paint6_linear" x1="13.0334" y1="12.9047" x2="11.4802" y2="10.5452" gradientUnits="userSpaceOnUse">
<stop stop-color="#3B444A"/>
<stop offset="1" stop-color="#3B444A"/>
</linearGradient>
<linearGradient id="paint7_linear" x1="10.0328" y1="13.3369" x2="10.0328" y2="12.3669" gradientUnits="userSpaceOnUse">
<stop stop-color="#858B8F"/>
<stop offset="1" stop-color="#868D90"/>
</linearGradient>
<linearGradient id="paint8_linear" x1="7.11359" y1="13.403" x2="9.71554" y2="8.58841" gradientUnits="userSpaceOnUse">
<stop stop-color="#08575C"/>
<stop offset="1" stop-color="#096166"/>
</linearGradient>
<clipPath id="clip0">
<rect width="18" height="18" fill="white"/>
</clipPath>
</defs>
</svg>
