<?xml version="1.0" encoding="utf-8"?>
<!-- Generator: Adobe Illustrator 25.0.0, SVG Export Plug-In . SVG Version: 6.00 Build 0)  -->
<svg version="1.1" id="Слой_1" xmlns="http://www.w3.org/2000/svg" xmlns:xlink="http://www.w3.org/1999/xlink" x="0px" y="0px"
	 viewBox="0 0 30 30" style="enable-background:new 0 0 30 30;" xml:space="preserve">
<style type="text/css">
	.st0{clip-path:url(#SVGID_2_);}
	.st1{fill:url(#SVGID_3_);}
	.st2{fill:url(#SVGID_4_);}
	.st3{fill:none;stroke:#FFFFFF;stroke-opacity:0.5;}
	.st4{fill:#FFFFFF;}
</style>
<g>
	<defs>
		<rect id="SVGID_1_" width="30" height="30"/>
	</defs>
	<clipPath id="SVGID_2_">
		<use xlink:href="#SVGID_1_"  style="overflow:visible;"/>
	</clipPath>
	<g class="st0">
		
			<linearGradient id="SVGID_3_" gradientUnits="userSpaceOnUse" x1="28.2694" y1="17.2115" x2="-1.2794" y2="16.7405" gradientTransform="matrix(1 0 0 -1 0 32)">
			<stop  offset="0" style="stop-color:#F99600"/>
			<stop  offset="1" style="stop-color:#F99600"/>
		</linearGradient>
		<path class="st1" d="M4,0h22c2.2,0,4,1.8,4,4V26c0,2.2-1.8,4-4,4H4c-2.2,0-4-1.8-4-4V4C0,1.8,1.8,0,4,0z"/>
		<linearGradient id="SVGID_4_" gradientUnits="userSpaceOnUse" x1="28.9991" y1="14.7768" x2="1.0026" y2="15.2231">
			<stop  offset="0" style="stop-color:#FFC56A"/>
			<stop  offset="1" style="stop-color:#F99600"/>
		</linearGradient>
		<path class="st2" d="M15,29c7.7,0,14-6.3,14-14S22.7,1,15,1S1,7.3,1,15S7.3,29,15,29z"/>
		<path class="st3" d="M15,29c7.7,0,14-6.3,14-14S22.7,1,15,1S1,7.3,1,15S7.3,29,15,29z"/>
		<path class="st4" d="M22.2,13c0.3-2.1-1.3-3.2-3.4-4l0.7-2.8l-1.7-0.4L17,8.6c-0.5-0.1-0.9-0.2-1.4-0.3l0.7-2.8l-1.7-0.4l-0.7,2.8
			c-0.4-0.1-0.7-0.2-1.1-0.3l0,0L10.5,7L10,8.9c0,0,1.3,0.3,1.3,0.3c0.7,0.2,0.8,0.6,0.8,1l-0.8,3.2c0,0,0.1,0,0.2,0.1l-0.2,0
			l-1.1,4.5c-0.1,0.2-0.3,0.5-0.8,0.4c0,0-1.3-0.3-1.3-0.3l-0.9,2l2.2,0.6c0.4,0.1,0.8,0.2,1.2,0.3L10,23.7l1.7,0.4l0.7-2.8
			c0.5,0.1,0.9,0.2,1.4,0.4l-0.7,2.8l1.7,0.4l0.7-2.9c2.9,0.6,5.1,0.3,6.1-2.3c0.7-2.1,0-3.4-1.6-4.2C21.1,15.3,22,14.6,22.2,13z
			 M18.3,18.5c-0.5,2.1-4.1,1-5.3,0.7l0.9-3.8C15.1,15.7,18.8,16.3,18.3,18.5z M18.8,13c-0.5,1.9-3.5,1-4.4,0.7l0.9-3.4
			C16.2,10.5,19.3,11,18.8,13z"/>
	</g>
</g>
</svg>
