<svg width="30" height="30" viewBox="0 0 30 30" fill="none" xmlns="http://www.w3.org/2000/svg">
<g clip-path="url(#clip0)">
<rect width="30" height="29.7458" rx="4" fill="#C2A633"/>
<path opacity="0.2" d="M14.74 22.48C19.0147 22.48 22.48 19.0147 22.48 14.74C22.48 10.4653 19.0147 7 14.74 7C10.4653 7 7 10.4653 7 14.74C7 19.0147 10.4653 22.48 14.74 22.48Z" fill="white"/>
<path d="M14.74 22.48C19.0147 22.48 22.48 19.0147 22.48 14.74C22.48 10.4653 19.0147 7 14.74 7C10.4653 7 7 10.4653 7 14.74C7 19.0147 10.4653 22.48 14.74 22.48Z" fill="#C2A633"/>
<mask id="mask0" mask-type="alpha" maskUnits="userSpaceOnUse" x="7" y="7" width="16" height="16">
<path d="M14.74 22.48C19.0147 22.48 22.48 19.0147 22.48 14.74C22.48 10.4653 19.0147 7 14.74 7C10.4653 7 7 10.4653 7 14.74C7 19.0147 10.4653 22.48 14.74 22.48Z" fill="white"/>
</mask>
<g mask="url(#mask0)">
<path fill-rule="evenodd" clip-rule="evenodd" d="M14.8674 11.6357H12.754V14.4425H11.4648V15.3781H12.754V18.185H14.8674C15.9828 18.185 16.2232 18.0682 16.7039 17.8345C16.7412 17.8164 16.78 17.7975 16.8207 17.778C17.3862 17.5067 17.8257 17.1246 18.1391 16.6319C18.4526 16.1391 18.6093 15.5653 18.6093 14.9104C18.6093 14.2554 18.4526 13.6816 18.1391 13.1888C17.8257 12.6961 17.3862 12.3141 16.8207 12.0427C16.2552 11.7714 15.6041 11.6357 14.8674 11.6357ZM14.3242 15.3781V16.9407H14.7895C15.4681 16.9407 16.0094 16.7582 16.4133 16.3933C16.8172 16.0285 17.0192 15.5342 17.0192 14.9104C17.0192 14.2867 16.8172 13.7924 16.4133 13.4275C16.0094 13.0626 15.4681 12.8802 14.7895 12.8802H14.3242V14.4425H15.8272V15.3781H14.3242Z" fill="white"/>
</g>
<rect x="6.5" y="6.5" width="16.48" height="16.48" rx="8.24" stroke="white"/>
</g>
<defs>
<clipPath id="clip0">
<rect width="30" height="29.7458" fill="white"/>
</clipPath>
</defs>
</svg>
