<?xml version="1.0" encoding="utf-8"?>
<!-- Generator: Adobe Illustrator 25.0.0, SVG Export Plug-In . SVG Version: 6.00 Build 0)  -->
<svg version="1.1" id="Слой_1" xmlns="http://www.w3.org/2000/svg" xmlns:xlink="http://www.w3.org/1999/xlink" x="0px" y="0px"
	 viewBox="0 0 30 30" style="enable-background:new 0 0 30 30;" xml:space="preserve">
<style type="text/css">
	.st0{clip-path:url(#SVGID_2_);}
	.st1{fill:url(#SVGID_3_);}
	.st2{fill:url(#SVGID_4_);}
	.st3{fill:none;stroke:#FFFFFF;stroke-opacity:0.5;}
	.st4{fill:#FFFFFF;}
</style>
<g>
	<defs>
		<rect id="SVGID_1_" width="30" height="30"/>
	</defs>
	<clipPath id="SVGID_2_">
		<use xlink:href="#SVGID_1_"  style="overflow:visible;"/>
	</clipPath>
	<g class="st0">
		
			<linearGradient id="SVGID_3_" gradientUnits="userSpaceOnUse" x1="3.2667" y1="3.6873" x2="29.8744" y2="33.8767" gradientTransform="matrix(1 0 0 -1 0 32)">
			<stop  offset="0" style="stop-color:#101010"/>
			<stop  offset="1" style="stop-color:#3D3D3D"/>
		</linearGradient>
		<path class="st1" d="M4,0h22c2.2,0,4,1.8,4,4V26c0,2.2-1.8,4-4,4H4c-2.2,0-4-1.8-4-4V4C0,1.8,1.8,0,4,0z"/>
		
			<linearGradient id="SVGID_4_" gradientUnits="userSpaceOnUse" x1="3.9944" y1="4.6187" x2="28.952" y2="32.696" gradientTransform="matrix(1 0 0 -1 0 32)">
			<stop  offset="0" style="stop-color:#101010"/>
			<stop  offset="1" style="stop-color:#3D3D3D"/>
		</linearGradient>
		<path class="st2" d="M15,29c7.7,0,14-6.3,14-14S22.7,1,15,1S1,7.3,1,15S7.3,29,15,29z"/>
		<path class="st3" d="M15,28.5c7.5,0,13.5-6.1,13.5-13.5S22.5,1.5,15,1.5S1.5,7.5,1.5,15S7.6,28.5,15,28.5z"/>
		<path class="st4" d="M20.3,9h2.2L18,13.5c-0.8,0.8-1.9,1.2-3,1.2c-1.1,0-2.2-0.4-3-1.2L7.5,9h2.2l3.4,3.4c0.5,0.5,1.2,0.8,1.9,0.8
			c0.7,0,1.4-0.3,1.9-0.8L20.3,9z M9.7,21.4H7.5l4.5-4.5c0.8-0.8,1.9-1.2,3-1.2s2.2,0.4,3,1.2l4.5,4.5h-2.2L16.9,18
			c-0.5-0.5-1.2-0.8-1.9-0.8s-1.4,0.3-1.9,0.8L9.7,21.4z"/>
	</g>
</g>
</svg>
