<?xml version="1.0" encoding="utf-8"?>
<!-- Generator: Adobe Illustrator 25.0.0, SVG Export Plug-In . SVG Version: 6.00 Build 0)  -->
<svg version="1.1" id="Слой_1" xmlns="http://www.w3.org/2000/svg" xmlns:xlink="http://www.w3.org/1999/xlink" x="0px" y="0px"
	 viewBox="0 0 30 30" style="enable-background:new 0 0 30 30;" xml:space="preserve">
<style type="text/css">
	.st0{clip-path:url(#SVGID_2_);}
	.st1{fill:url(#SVGID_3_);}
	.st2{opacity:0.9;fill:#FFFFFF;enable-background:new    ;}
	.st3{fill:none;stroke:#FFFFFF;stroke-miterlimit:10;}
	.st4{fill:#FF060A;}
</style>
<g>
	<g>
		<defs>
			<rect id="SVGID_1_" width="30" height="30"/>
		</defs>
		<clipPath id="SVGID_2_">
			<use xlink:href="#SVGID_1_"  style="overflow:visible;"/>
		</clipPath>
		<g class="st0">
			
				<linearGradient id="SVGID_3_" gradientUnits="userSpaceOnUse" x1="3.2667" y1="356.3127" x2="29.8744" y2="326.1233" gradientTransform="matrix(1 0 0 1 0 -328)">
				<stop  offset="0" style="stop-color:#FF060A"/>
				<stop  offset="1" style="stop-color:#E55B5B"/>
			</linearGradient>
			<path class="st1" d="M4,0h22c2.2,0,4,1.8,4,4v22c0,2.2-1.8,4-4,4H4c-2.2,0-4-1.8-4-4V4C0,1.8,1.8,0,4,0z"/>
			<path class="st2" d="M15,28.9c7.7,0,14-6.2,14-13.9S22.7,1.1,15,1.1S1,7.3,1,15S7.3,28.9,15,28.9z"/>
			<path class="st3" d="M15,28.9c7.7,0,14-6.2,14-13.9S22.7,1.1,15,1.1S1,7.3,1,15S7.3,28.9,15,28.9z"/>
			<path class="st4" d="M22.4,12.2c-0.7-0.7-1.8-1.7-2.6-2.5l0,0c-0.1-0.1-0.2-0.1-0.3-0.2c-2-0.4-11.4-2.1-11.6-2.1
				c-0.1,0-0.1,0-0.1,0.1l0,0C7.7,7.6,7.6,7.6,7.6,7.7l0,0v0.2l0,0c1.1,2.9,5.2,12.5,6,14.8c0,0.2,0.1,0.4,0.3,0.5l0,0
				c0.1,0,0.5-0.5,0.5-0.5s7.1-8.7,7.9-9.6c0.1-0.1,0.2-0.2,0.2-0.4c0-0.1,0-0.2,0-0.3C22.5,12.3,22.5,12.2,22.4,12.2z M16.3,13.2
				l3-2.5l1.8,1.6L16.3,13.2z M15.1,13L9.9,8.7l8.5,1.6L15.1,13z M15.6,14.1l5.4-0.9l-6.1,7.4L15.6,14.1z M9.2,9.1l5.5,4.7l-0.8,6.9
				L9.2,9.1z"/>
		</g>
	</g>
</g>
</svg>
