<svg width="22" height="22" viewBox="0 0 22 22" fill="none" xmlns="http://www.w3.org/2000/svg">
<path d="M18 0H4C1.79086 0 0 1.79086 0 4V18C0 20.2091 1.79086 22 4 22H18C20.2091 22 22 20.2091 22 18V4C22 1.79086 20.2091 0 18 0Z" fill="url(#paint0_linear_2156_27277)"/>
<path d="M11 4C14.864 4 18 7.136 18 11C18 14.864 14.864 18 11 18C7.136 18 4 14.864 4 11C4 7.136 7.136 4 11 4Z" fill="url(#paint1_linear_2156_27277)"/>
<path d="M11 4C14.8639 4 18 7.13614 18 11C18 14.8639 14.8639 18 11 18C7.13614 18 4 14.8639 4 11C4 7.13614 7.13614 4 11 4Z" stroke="white" stroke-opacity="0.57"/>
<path d="M12.0198 10.0323V8.83872H14.8158V7H7.1842V8.83872H9.98024V10.0323C7.71052 10.129 6 10.5806 6 11.0968C6 11.6129 7.71052 12.0645 9.98024 12.1613V16H11.9869V12.1613C14.2895 12.0645 16 11.6129 16 11.0968C16 10.5806 14.2895 10.129 12.0198 10.0323ZM12.0198 11.8387C11.954 11.8387 11.6579 11.871 11.0329 11.871C10.5066 11.871 10.1447 11.871 10.0131 11.8387C7.97367 11.7419 6.49342 11.4193 6.49342 11C6.49342 10.5806 8.00657 10.2581 10.0131 10.1613V11.5161C10.1447 11.5161 10.5066 11.5484 11.0329 11.5484C11.6579 11.5484 11.9869 11.5161 12.0198 11.5161V10.1613C14.0263 10.2581 15.5066 10.5806 15.5066 11C15.5066 11.4193 14.0263 11.7419 12.0198 11.8387Z" fill="white"/>
<g clip-path="url(#clip0_2156_27277)">
<path d="M15.5754 12.1452C17.4195 11.6375 19.3454 12.7303 19.8553 14.5737C20.3653 16.4172 19.2737 18.3408 17.4297 18.8486C15.5856 19.3563 13.6597 18.2635 13.1498 16.4201C12.6399 14.5766 13.7314 12.6529 15.5754 12.1452Z" fill="#F7931A"/>
<path d="M17.9239 14.6542C17.8485 14.164 17.4437 14.0049 16.8944 13.9758L16.8843 13.2872L16.47 13.3111L16.4723 13.9718C16.3528 13.9746 16.2333 13.9775 16.1418 13.9726L16.1317 13.284L15.7174 13.308L15.7275 13.9965C15.6359 13.9917 14.8911 14.0164 14.8911 14.0164L14.9231 14.4584L15.218 14.4374C15.4011 14.4471 15.4522 14.5232 15.4474 14.6147L15.5151 16.4897C15.5026 16.5533 15.4901 16.6168 15.3706 16.6197L15.0758 16.6407L14.9681 17.1212C14.9681 17.1212 15.713 17.0965 15.8045 17.1013L15.8146 17.7899L16.2366 17.7939L16.2266 17.1054C16.3461 17.1025 16.4656 17.0997 16.5571 17.1045L16.5672 17.7931L16.9892 17.7971L16.9792 17.1085C17.6806 17.0356 18.1758 16.8692 18.2014 16.2009C18.2377 15.6799 17.9928 15.4468 17.5755 15.3513C17.8193 15.2541 17.9685 15.0327 17.9239 14.6542ZM17.3775 16.1572C17.3971 16.6628 16.5173 16.6346 16.2225 16.6556L16.2065 15.7282C16.5013 15.7072 17.3781 15.616 17.3775 16.1572ZM17.1695 14.8619C17.1814 15.3396 16.449 15.3007 16.2101 15.3064L16.1893 14.4705C16.4004 14.4725 17.15 14.3563 17.1695 14.8619Z" fill="white"/>
</g>
<defs>
<linearGradient id="paint0_linear_2156_27277" x1="11" y1="0" x2="11" y2="22" gradientUnits="userSpaceOnUse">
<stop stop-color="#53AE94" stop-opacity="0.6"/>
<stop offset="1" stop-color="#2B886D"/>
</linearGradient>
<linearGradient id="paint1_linear_2156_27277" x1="11" y1="4" x2="11" y2="18" gradientUnits="userSpaceOnUse">
<stop stop-color="#53AE94" stop-opacity="0.6"/>
<stop offset="1" stop-color="#2B886D"/>
</linearGradient>
<clipPath id="clip0_2156_27277">
<rect width="7" height="7" fill="white" transform="translate(13 12)"/>
</clipPath>
</defs>
</svg>
