<svg width="22" height="22" viewBox="0 0 22 22" fill="none" xmlns="http://www.w3.org/2000/svg">
<rect width="22" height="22" rx="4" fill="url(#paint0_linear)"/>
<path d="M10.5 3C14.64 3 18 6.36 18 10.5C18 14.64 14.64 18 10.5 18C6.36 18 3 14.64 3 10.5C3 6.36 6.36 3 10.5 3Z" fill="url(#paint1_linear)"/>
<path d="M10.5 3.5C14.3639 3.5 17.5 6.63614 17.5 10.5C17.5 14.3639 14.3639 17.5 10.5 17.5C6.63614 17.5 3.5 14.3639 3.5 10.5C3.5 6.63614 6.63614 3.5 10.5 3.5Z" stroke="white" stroke-opacity="0.57"/>
<path d="M11.4295 9.51043V8.40043H13.9795V6.69043H7.01945V8.40043H9.56945V9.51043C7.49945 9.60043 5.93945 10.0204 5.93945 10.5004C5.93945 10.9804 7.49945 11.4004 9.56945 11.4904V15.0604H11.3995V11.4904C13.4995 11.4004 15.0595 10.9804 15.0595 10.5004C15.0595 10.0204 13.4995 9.60043 11.4295 9.51043ZM11.4295 11.1904C11.3695 11.1904 11.0995 11.2204 10.5295 11.2204C10.0495 11.2204 9.71945 11.2204 9.59945 11.1904C7.73945 11.1004 6.38945 10.8004 6.38945 10.4104C6.38945 10.0204 7.76945 9.72043 9.59945 9.63043V10.8904C9.71945 10.8904 10.0495 10.9204 10.5295 10.9204C11.0995 10.9204 11.3995 10.8904 11.4295 10.8904V9.63043C13.2595 9.72043 14.6095 10.0204 14.6095 10.4104C14.6095 10.8004 13.2595 11.1004 11.4295 11.1904Z" fill="white"/>
<g clip-path="url(#clip0)">
<path d="M19.8 15.5C19.8 17.3225 18.3225 18.8 16.5 18.8C14.6775 18.8 13.2 17.3225 13.2 15.5C13.2 13.6775 14.6775 12.2 16.5 12.2C18.3225 12.2 19.8 13.6775 19.8 15.5Z" fill="white" stroke="#F32E30" stroke-width="0.4"/>
<path d="M18.3116 14.8085C18.1332 14.6424 17.8865 14.3888 17.6855 14.2089L17.6736 14.2005C17.6538 14.1845 17.6315 14.1719 17.6076 14.1633C17.1231 14.0722 14.8678 13.647 14.8238 13.6524C14.8115 13.6541 14.7997 13.6586 14.7893 13.6656L14.778 13.6746C14.7641 13.6888 14.7536 13.706 14.7471 13.725L14.7441 13.7327V13.7753V13.7819C14.998 14.4949 16.0005 16.8306 16.1979 17.3787C16.2098 17.4159 16.2324 17.4866 16.2746 17.4902H16.2841C16.3067 17.4902 16.403 17.3619 16.403 17.3619C16.403 17.3619 18.1249 15.2559 18.2991 15.0316C18.3217 15.004 18.3416 14.9743 18.3586 14.9429C18.3629 14.9183 18.3609 14.893 18.3526 14.8695C18.3444 14.8459 18.3303 14.8249 18.3116 14.8085ZM16.8448 15.0538L17.5797 14.4391L18.0108 14.8397L16.8448 15.0538ZM16.5594 15.0136L15.2941 13.9678L17.3413 14.3486L16.5594 15.0136ZM16.6736 15.2877L17.9685 15.0772L16.488 16.8762L16.6736 15.2877ZM15.1223 14.0722L16.4536 15.2115L16.2609 16.8774L15.1223 14.0722Z" fill="#FF060A"/>
</g>
<defs>
<linearGradient id="paint0_linear" x1="11" y1="0" x2="11" y2="22" gradientUnits="userSpaceOnUse">
<stop stop-color="#53AE94" stop-opacity="0.6"/>
<stop offset="1" stop-color="#2B886D"/>
</linearGradient>
<linearGradient id="paint1_linear" x1="10.5" y1="3" x2="10.5" y2="18" gradientUnits="userSpaceOnUse">
<stop stop-color="#53AE94" stop-opacity="0.6"/>
<stop offset="1" stop-color="#2B886D"/>
</linearGradient>
<clipPath id="clip0">
<rect width="7" height="7" fill="white" transform="translate(13 12)"/>
</clipPath>
</defs>
</svg>
