<svg width="30" height="30" viewBox="0 0 30 30" fill="none" xmlns="http://www.w3.org/2000/svg">
<rect width="30" height="30" rx="4" fill="#222329"/>
<path d="M15 1.00879C22.728 1.00879 29 7.33439 29 15.1284C29 22.9225 22.728 29.2481 15 29.2481C7.272 29.2481 1 22.9225 1 15.1284C1 7.33439 7.272 1.00879 15 1.00879Z" fill="url(#paint0_linear_2270_28595)"/>
<path d="M15 1.50879C22.4479 1.50879 28.5 7.60651 28.5 15.1284C28.5 22.6503 22.4479 28.7481 15 28.7481C7.55215 28.7481 1.5 22.6503 1.5 15.1284C1.5 7.60651 7.55215 1.50879 15 1.50879Z" stroke="white" stroke-opacity="0.57"/>
<path d="M21.5215 9.9196L19.4879 10.9394L9.65327 15.8812C9.6215 15.6302 9.60561 15.3792 9.60561 15.1282C9.60561 11.9591 12.243 9.35482 15.4523 9.35482C16.4533 9.35482 17.4383 9.60583 18.3121 10.0922L19.472 9.5117L19.6467 9.41757C18.4234 8.53901 16.9617 8.06836 15.4523 8.06836C11.528 8.06836 8.3028 11.2531 8.3028 15.1282C8.3028 15.3008 8.3028 15.489 8.31869 15.6616C8.35047 16.1793 8.08037 16.6656 7.61963 16.901L7 17.2147V18.6581L8.81121 17.7482L9.39907 17.4501L9.97103 17.152L20.3299 11.9434L21.4897 11.3629L23.8888 10.1549V8.71159L21.5215 9.9196ZM23.9047 11.5983L10.5589 18.3129L9.39907 18.8934L7 20.1014V21.5448L9.38318 20.3524L11.4168 19.3327L21.2514 14.3908C21.2832 14.6418 21.2991 14.8929 21.2991 15.1439C21.2991 18.3129 18.6617 20.9172 15.4523 20.9172C14.4514 20.9172 13.4664 20.6662 12.5925 20.1799L12.529 20.2112L11.2738 20.8545C12.4654 21.7173 13.943 22.188 15.4523 22.188C19.3766 22.188 22.6019 19.0032 22.6019 15.1282C22.6019 14.9399 22.6019 14.7673 22.586 14.5791C22.5542 14.0614 22.8243 13.575 23.285 13.3397L23.9047 13.0259V11.5983Z" fill="white"/>
<defs>
<linearGradient id="paint0_linear_2270_28595" x1="15" y1="1.00879" x2="15" y2="29.2481" gradientUnits="userSpaceOnUse">
<stop stop-color="#272727"/>
<stop offset="1" stop-color="#18191D"/>
</linearGradient>
</defs>
</svg>
